<?xml version="1.0" encoding="utf-8"?>
<!-- Generator: Adobe Illustrator 24.0.1, SVG Export Plug-In . SVG Version: 6.00 Build 0)  -->
<svg version="1.1" id="Layer_1" xmlns="http://www.w3.org/2000/svg" xmlns:xlink="http://www.w3.org/1999/xlink" x="0px" y="0px"
	 viewBox="0 0 72 72" style="enable-background:new 0 0 72 72;" xml:space="preserve">
<style type="text/css">
	.st0{fill:#0082E6;}
</style>
<path class="st0" d="M11,40.3c-3,0-5.5,2.5-5.5,5.5S8,51.3,11,51.3s5.5-2.5,5.5-5.5S14,40.3,11,40.3z M11,50.3c-2.5,0-4.5-2-4.5-4.5
	s2-4.5,4.5-4.5s4.5,2,4.5,4.5S13.5,50.3,11,50.3z M36,50.3c-3,0-5.5,2.5-5.5,5.5c0,3,2.5,5.5,5.5,5.5s5.5-2.5,5.5-5.5
	C41.5,52.8,39,50.3,36,50.3z M36,60.3c-2.5,0-4.5-2-4.5-4.5s2-4.5,4.5-4.5s4.5,2,4.5,4.5S38.5,60.3,36,60.3z M36,21.3
	c3,0,5.5-2.5,5.5-5.5c0-3-2.5-5.5-5.5-5.5s-5.5,2.5-5.5,5.5C30.5,18.8,33,21.3,36,21.3z M36,11.3c2.5,0,4.5,2,4.5,4.5
	s-2,4.5-4.5,4.5s-4.5-2-4.5-4.5S33.5,11.3,36,11.3z M36.5,48.8h-1v-4.5h1V48.8z M60.5,33.6h1v4.5h-1V33.6z M11.5,38.1h-1v-4.5h1
	V38.1z M35.5,22.9h1v4.5h-1V22.9z M18.6,47.9l10.2,4.9l-0.4,0.9l-10.2-4.9L18.6,47.9z M28.2,32.5l-0.4,0.9l-9.6-4.6l0.4-0.9
	L28.2,32.5z M61,40.3c-3,0-5.5,2.5-5.5,5.5s2.5,5.5,5.5,5.5s5.5-2.5,5.5-5.5S64,40.3,61,40.3z M61,50.3c-2.5,0-4.5-2-4.5-4.5
	s2-4.5,4.5-4.5s4.5,2,4.5,4.5S63.5,50.3,61,50.3z M53.4,47.9l0.4,0.9l-10.2,4.9l-0.4-0.9L53.4,47.9z M18.6,43.7l-0.4-0.9l9.6-4.6
	l0.4,0.9L18.6,43.7z M28.4,17.9l0.4,0.9l-10.2,4.9l-0.4-0.9L28.4,17.9z M44.2,38.2l9.6,4.6l-0.4,0.9l-9.6-4.6L44.2,38.2z M61,31.3
	c3,0,5.5-2.5,5.5-5.5S64,20.3,61,20.3s-5.5,2.5-5.5,5.5S58,31.3,61,31.3z M61,21.3c2.5,0,4.5,2,4.5,4.5s-2,4.5-4.5,4.5
	s-4.5-2-4.5-4.5S58.5,21.3,61,21.3z M11,20.3c-3,0-5.5,2.5-5.5,5.5S8,31.3,11,31.3s5.5-2.5,5.5-5.5S14,20.3,11,20.3z M11,30.3
	c-2.5,0-4.5-2-4.5-4.5s2-4.5,4.5-4.5s4.5,2,4.5,4.5S13.5,30.3,11,30.3z M43.6,17.9l10.2,4.9l-0.4,0.9l-10.2-4.9L43.6,17.9z
	 M53.4,27.9l0.4,0.9l-9.6,4.6l-0.4-0.9L53.4,27.9z M40,32.5c0-2.2-1.8-4-4-4s-4,1.8-4,4v2.4h-1.7v8.3h11.3v-1H31.3v-6.3h9.3v4.6h1
	v-5.6H40V32.5z M33.1,32.5c0-1.6,1.3-3,3-3s3,1.3,3,3v2.4h-5.9V32.5z"/>
</svg>
