<?xml version="1.0" encoding="utf-8"?>
<!-- Generator: Adobe Illustrator 24.1.0, SVG Export Plug-In . SVG Version: 6.00 Build 0)  -->
<svg version="1.1" id="Layer_1" xmlns="http://www.w3.org/2000/svg" xmlns:xlink="http://www.w3.org/1999/xlink" x="0px" y="0px"
	 viewBox="0 0 72 72" style="enable-background:new 0 0 72 72;" xml:space="preserve">
<style type="text/css">
	.st0{fill:#0082E6;}
</style>
<g>
	<path class="st0" d="M38.3,37.2c-1.2,1.2-3,1.2-4.2,0c-1.2-1.2-1.2-3,0-4.2c1.2-1.2,3-1.2,4.2,0c0.6,0.6,0.9,1.3,0.9,2.1
		C39.2,35.9,38.9,36.7,38.3,37.2L38.3,37.2z M33.4,32.3c-1.5,1.5-1.5,4.1,0,5.6c0.6,0.6,1.5,1,2.3,1.1v17.4h1V39
		c0.8-0.1,1.7-0.5,2.3-1.1c1.5-1.5,1.5-4.1,0-5.6C37.5,30.8,35,30.8,33.4,32.3L33.4,32.3z"/>
	<path class="st0" d="M48.5,25.6l-0.4-0.4l-0.7,0.7l0.4,0.4c5,5,5,13.2,0,18.3l-0.4,0.4l0.7,0.7l0.4-0.4
		C53.9,39.8,53.9,31,48.5,25.6L48.5,25.6z"/>
	<path class="st0" d="M53.5,20.6l-0.4-0.4L52.4,21l0.4,0.4c7.8,7.8,7.8,20.4,0,28.2l-0.4,0.4l0.7,0.7l0.4-0.4
		C61.6,42,61.6,28.8,53.5,20.6L53.5,20.6z"/>
	<path class="st0" d="M58.4,15.6l-0.4-0.4L57.4,16l0.4,0.4c5.1,5.1,7.9,11.9,7.9,19.1c0,7.2-2.8,14-7.9,19.1l-0.4,0.4l0.7,0.7
		l0.4-0.4c5.3-5.3,8.2-12.3,8.2-19.8C66.6,27.9,63.7,20.9,58.4,15.6L58.4,15.6z"/>
	<path class="st0" d="M24.8,25.9l-0.7-0.7l-0.4,0.4c-2.6,2.6-4.1,6.1-4.1,9.8c0,3.7,1.4,7.2,4.1,9.8l0.4,0.4l0.7-0.7l-0.4-0.4
		c-2.4-2.4-3.8-5.7-3.8-9.1c0-3.4,1.3-6.7,3.8-9.1L24.8,25.9L24.8,25.9z"/>
	<path class="st0" d="M19.5,21.3l0.4-0.4l-0.7-0.7l-0.4,0.4c-8.2,8.2-8.2,21.4,0,29.6l0.4,0.4l0.7-0.7l-0.4-0.4
		C11.8,41.7,11.8,29.1,19.5,21.3L19.5,21.3z"/>
	<path class="st0" d="M6.7,35.4c0-7.2,2.8-14,7.9-19.1l0.4-0.4l-0.7-0.7l-0.4,0.4c-5.3,5.3-8.2,12.3-8.2,19.8
		c0,7.5,2.9,14.5,8.2,19.8l0.4,0.4l0.7-0.7l-0.4-0.4C9.5,49.4,6.7,42.6,6.7,35.4L6.7,35.4z"/>
</g>
</svg>
