<?xml version="1.0" encoding="utf-8"?>
<!-- Generator: Adobe Illustrator 24.0.1, SVG Export Plug-In . SVG Version: 6.00 Build 0)  -->
<svg version="1.1" id="Layer_1" xmlns="http://www.w3.org/2000/svg" xmlns:xlink="http://www.w3.org/1999/xlink" x="0px" y="0px"
	 viewBox="0 0 72 72" style="enable-background:new 0 0 72 72;" xml:space="preserve">
<style type="text/css">
	.st0{fill:#0082E6;}
</style>
<path class="st0" d="M58.6,41.8c1.3,1.4,1.2,3.6-0.2,4.9l-8.8,9.2l-23.4,0.6L23.1,59l-0.6-0.8l3.4-2.7l23.3-0.6l8.5-8.9
	c1-0.9,1.1-2.5,0.2-3.5c-0.9-1-2.5-1.1-3.5-0.1l-6.3,6.5H37.4h-0.5h-5.8v-1h5.8h0.5c1.4,0,2.5-1.1,2.5-2.5c0-1.4-1.1-2.5-2.5-2.5
	H25.9c-1.5,0-2.8,0.8-3.4,1.3l-8.8,7l7.6,9.3l-0.8,0.6L12.3,51l9.6-7.7c0.7-0.6,2.2-1.5,4-1.5h11.5c1.9,0,3.5,1.6,3.5,3.5
	c0,1-0.4,1.8-1.1,2.5h7.8l6-6.2C55.1,40.3,57.3,40.4,58.6,41.8z M11.3,27.2c0-2.8,2.3-5.1,5.1-5.1h6.5v-9.9
	c-0.3-0.1-0.6-0.2-0.8-0.5c-0.7-0.7-0.7-1.9,0-2.6c0.7-0.7,1.9-0.7,2.6,0c0.7,0.7,0.7,1.9,0,2.6c-0.2,0.2-0.5,0.4-0.8,0.5v9.9h31.7
	c2.8,0,5.1,2.3,5.1,5.1s-2.3,5.1-5.1,5.1H16.4C13.6,32.3,11.3,30,11.3,27.2z M22.8,11c0.3,0.3,0.9,0.3,1.2,0c0.3-0.3,0.3-0.8,0-1.2
	c-0.2-0.2-0.4-0.2-0.6-0.2c-0.2,0-0.4,0.1-0.6,0.2C22.5,10.2,22.5,10.7,22.8,11z M12.3,27.2c0,2.2,1.8,4.1,4.1,4.1h39.2
	c2.2,0,4.1-1.8,4.1-4.1s-1.8-4.1-4.1-4.1H23.9h-1h-6.5C14.2,23.1,12.3,25,12.3,27.2z M30.9,26.7h-15v1h15V26.7z M35.4,26.7h-3.3v1
	h3.3V26.7z M40,26.7h-3.3v1H40V26.7z"/>
</svg>
