<?xml version="1.0" encoding="utf-8"?>
<!-- Generator: Adobe Illustrator 24.0.1, SVG Export Plug-In . SVG Version: 6.00 Build 0)  -->
<svg version="1.1" id="Layer_1" xmlns="http://www.w3.org/2000/svg" xmlns:xlink="http://www.w3.org/1999/xlink" x="0px" y="0px"
	 viewBox="0 0 72 72" style="enable-background:new 0 0 72 72;" xml:space="preserve">
<style type="text/css">
	.st0{fill:#0082E6;}
</style>
<g>
	<path class="st0" d="M24,64.3l-0.7-0.8l3.2-2.6l24.7-0.6l9-9.4c1.1-1,1.2-2.7,0.2-3.7c-0.5-0.5-1.1-0.8-1.8-0.8
		c-0.7,0-1.4,0.2-1.9,0.7l-6.7,6.9H32.6v-1.1h17l6.4-6.6c0.7-0.7,1.7-1,2.7-1c1,0,1.9,0.5,2.5,1.2c1.4,1.5,1.3,3.8-0.2,5.2l-9.3,9.7
		L27,62L24,64.3z"/>
	<path class="st0" d="M20.6,66.4l-8.3-10.2l10.2-8.1c0.7-0.6,2.3-1.6,4.2-1.6h12.2c2,0,3.7,1.7,3.7,3.7c0,2-1.7,3.7-3.7,3.7v-1.1
		c1.5,0,2.7-1.2,2.7-2.6c0-1.5-1.2-2.7-2.7-2.7H26.6c-1.6,0-2.9,0.9-3.6,1.4l-9.3,7.5l7.7,9.4L20.6,66.4z"/>
	<g>
		<polygon class="st0" points="50.5,42.5 23.4,42.5 23.4,22.5 51,22.5 51,34.9 49.9,34.9 49.9,23.6 24.4,23.6 24.4,41.4 50.5,41.4 
					"/>
		<path class="st0" d="M46.7,22.6h-1.1v-7c0-4.6-3.8-8.4-8.4-8.4s-8.4,3.8-8.4,8.4v7h-1.1v-7c0-5.2,4.2-9.4,9.4-9.4s9.4,4.2,9.4,9.4
			V22.6z"/>
	</g>
</g>
</svg>
