<?xml version="1.0" encoding="utf-8"?>
<!-- Generator: Adobe Illustrator 24.0.1, SVG Export Plug-In . SVG Version: 6.00 Build 0)  -->
<svg version="1.1" id="Layer_1" xmlns="http://www.w3.org/2000/svg" xmlns:xlink="http://www.w3.org/1999/xlink" x="0px" y="0px"
	 viewBox="0 0 72 72" style="enable-background:new 0 0 72 72;" xml:space="preserve">
<style type="text/css">
	.st0{fill:#0082E6;}
</style>
<path class="st0" d="M59.1,47.8c0,0.9-0.4,1.8-1.1,2.4l-8.8,9.2L25.8,60l-3.1,2.5L22,61.8l3.4-2.7l23.3-0.6l8.5-8.9
	c0.5-0.5,0.8-1.1,0.8-1.7c0-0.7-0.2-1.3-0.7-1.8c-0.9-1-2.5-1.1-3.5-0.1l-6.3,6.5H37h-0.5h-5.8v-1h5.8H37c1.4,0,2.5-1.1,2.5-2.5
	c0-1.4-1.1-2.5-2.5-2.5H25.5c-1.5,0-2.8,0.8-3.4,1.3l-8.8,7l7.6,9.3l-0.8,0.6l-8.2-10.1l9.6-7.7c0.7-0.6,2.2-1.5,4-1.5H37
	c1.9,0,3.5,1.6,3.5,3.5c0,1-0.4,1.8-1.1,2.5h7.8l6-6.2c1.4-1.3,3.6-1.2,4.9,0.2C58.8,46,59.1,46.9,59.1,47.8z M40.9,32.9l0.4,0.4
	l-5.6,5.6L30,33.2l0.4-0.4C33.2,30,38,30,40.9,32.9z M39.8,33.3c-1.2-1-2.6-1.5-4.2-1.5s-3,0.5-4.2,1.5l4.2,4.2L39.8,33.3z
	 M45.9,28.6l0.7-0.7l-0.4-0.4c-2.8-2.8-6.6-4.4-10.7-4.4c-4,0-7.8,1.6-10.7,4.4l-0.4,0.4l0.7,0.7l0.4-0.4c2.7-2.7,6.2-4.1,10-4.1
	c3.8,0,7.3,1.5,10,4.1L45.9,28.6z M51.3,23.2l0.7-0.7l-0.4-0.4c-8.9-8.9-23.3-8.9-32.1,0l-0.4,0.4l0.7,0.7l0.4-0.4
	c8.5-8.5,22.2-8.5,30.7,0L51.3,23.2z M14.9,17.4c5.5-5.5,12.9-8.6,20.8-8.6s15.2,3,20.8,8.6l0.4,0.4l0.7-0.7l-0.4-0.4
	C51.3,11,43.7,7.8,35.6,7.8S19.9,11,14.1,16.7L13.8,17l0.7,0.7L14.9,17.4z"/>
</svg>
