<?xml version="1.0" encoding="utf-8"?>
<!-- Generator: Adobe Illustrator 24.0.1, SVG Export Plug-In . SVG Version: 6.00 Build 0)  -->
<svg version="1.1" id="Layer_1" xmlns="http://www.w3.org/2000/svg" xmlns:xlink="http://www.w3.org/1999/xlink" x="0px" y="0px"
	 viewBox="0 0 72 72" style="enable-background:new 0 0 72 72;" xml:space="preserve">
<style type="text/css">
	.st0{fill:#0082E6;}
</style>
<path class="st0" d="M25.5,38l1.9-5.7h1l-2.5,7.2h-0.8L23.2,34l-1.9,5.5h-0.8l0,0L18,32.3h1l0,0.1L21,38l1.9-5.7h0.8l0,0.1L25.5,38z
	 M36.4,32.4L36.4,32.4l-0.8-0.1L33.8,38l-1.9-5.6l0-0.1h-1l2.5,7.1l0,0h0.8L36,34l1.9,5.5h0.8l2.5-7.2h-1L38.3,38L36.4,32.4z
	 M49.2,32.4L49.2,32.4l-0.8-0.1L46.6,38l-1.9-5.6l0-0.1h-1l2.5,7.1l0,0h0.8l1.9-5.5l1.9,5.5h0.8l2.5-7.2h-1L51,38L49.2,32.4z
	 M32.2,25.2H9.6v-1h22.7c12.3,0,18.1-2.6,23.2-6.7c-0.1-0.3-0.2-0.6-0.2-0.9c0-1.1,0.9-1.9,1.9-1.9s1.9,0.9,1.9,1.9
	s-0.9,1.9-1.9,1.9c-0.4,0-0.7-0.1-1-0.3C50.8,22.5,44.9,25.2,32.2,25.2z M56.2,16.6c0,0.5,0.4,0.9,0.9,0.9c0.5,0,0.9-0.4,0.9-0.9
	s-0.4-0.9-0.9-0.9C56.6,15.7,56.2,16.1,56.2,16.6z M32.2,22.7H9.6v-1h22.7c8.5,0,11.9-3.9,14.6-10.1l0,0c-0.1-0.1-0.2-0.2-0.3-0.2
	c-0.8-0.8-0.8-2,0-2.8c0.8-0.8,2-0.8,2.8,0c0.4,0.4,0.6,0.9,0.6,1.4s-0.2,1-0.6,1.4c-0.4,0.4-0.9,0.6-1.4,0.6c0,0-0.1,0-0.1,0l0,0.1
	C44.9,18.6,41.3,22.7,32.2,22.7z M47.2,10.7c0.4,0.4,1,0.4,1.3,0c0.2-0.2,0.3-0.4,0.3-0.7c0-0.3-0.1-0.5-0.3-0.7
	c-0.2-0.2-0.4-0.3-0.7-0.3s-0.5,0.1-0.7,0.3C46.9,9.7,46.9,10.3,47.2,10.7z M29.6,27.7h-20v-1h20h0.5h28.6c0.2-0.8,1-1.4,1.8-1.4
	c1.1,0,1.9,0.9,1.9,1.9s-0.9,1.9-1.9,1.9c-0.9,0-1.6-0.6-1.8-1.4H30.1H29.6z M59.6,27.2c0,0.5,0.4,0.9,0.9,0.9
	c0.5,0,0.9-0.4,0.9-0.9c0-0.5-0.4-0.9-0.9-0.9C60,26.3,59.6,26.7,59.6,27.2z M59,55.3c0,1.1-0.9,1.9-1.9,1.9s-1.9-0.9-1.9-1.9
	c0-0.3,0.1-0.6,0.2-0.9c-5.1-4.1-10.8-6.7-23.2-6.7H9.6v-1h22.7c12.7,0,18.6,2.7,23.8,7c0.3-0.2,0.6-0.3,1-0.3
	C58.1,53.4,59,54.3,59,55.3z M58,55.3c0-0.5-0.4-0.9-0.9-0.9c-0.5,0-0.9,0.4-0.9,0.9s0.4,0.9,0.9,0.9C57.6,56.3,58,55.8,58,55.3z
	 M49.3,60.6c0.4,0.4,0.6,0.9,0.6,1.4s-0.2,1-0.6,1.4c-0.4,0.4-0.9,0.6-1.4,0.6s-1-0.2-1.4-0.6c-0.8-0.8-0.8-2,0-2.8
	c0.1-0.1,0.2-0.2,0.3-0.2l0,0c-2.7-6.2-6.1-10.1-14.6-10.1H9.6v-1h22.7c9,0,12.6,4.1,15.5,10.7l0,0.1C48.3,60,48.9,60.2,49.3,60.6z
	 M48.9,61.9c0-0.3-0.1-0.5-0.3-0.7c-0.2-0.2-0.4-0.3-0.7-0.3s-0.5,0.1-0.7,0.3c-0.4,0.4-0.4,1,0,1.3s1,0.4,1.3,0
	C48.8,62.4,48.9,62.2,48.9,61.9z M62.4,44.8c0,1.1-0.9,1.9-1.9,1.9c-0.9,0-1.6-0.6-1.8-1.4H30.1h-0.5h-20v-1h20h0.5h28.6
	c0.2-0.8,1-1.4,1.8-1.4C61.6,42.9,62.4,43.7,62.4,44.8z M61.4,44.8c0-0.5-0.4-0.9-0.9-0.9c-0.5,0-0.9,0.4-0.9,0.9
	c0,0.5,0.4,0.9,0.9,0.9C61,45.7,61.4,45.3,61.4,44.8z"/>
</svg>
